<svg width="24"
     height="24"
     viewBox="0 0 24 24"
     fill="none"
     xmlns="http://www.w3.org/2000/svg">
    <path fill-rule="evenodd"
          clip-rule="evenodd"
          d="M0 2.57143C0 1.15127 1.15127 0 2.57143 0H14.5714C15.9916 0 17.1429 1.15127 17.1429 2.57143V8.14282H16.2589C16.1067 6.93183 15.3168 5.87919 14.1692 5.40384C12.888 4.87317 11.4133 5.1665 10.4328 6.14705L7.00421 9.57562C5.66527 10.9146 5.66527 13.0854 7.00421 14.4244L10.4328 17.8529C11.4133 18.8335 12.888 19.1268 14.1692 18.5962C15.3168 18.1209 16.1067 17.0681 16.2589 15.8571H17.1429V21.4286C17.1429 22.8487 15.9916 24 14.5714 24H2.57143C1.15127 24 0 22.8487 0 21.4286V2.57143ZM13.3492 7.38362C13.8296 7.58263 14.1429 8.05145 14.1429 8.57146V10.2857H22.2857C23.2325 10.2857 24 11.0533 24 12C24 12.9468 23.2325 13.7143 22.2857 13.7143H14.1429V15.4286C14.1429 15.9486 13.8296 16.4175 13.3492 16.6165C12.8687 16.8155 12.3157 16.7055 11.948 16.3377L8.51943 12.9092C8.01734 12.4071 8.01734 11.593 8.51943 11.0909L11.948 7.66233C12.3157 7.29461 12.8687 7.18462 13.3492 7.38362Z"
          fill="#7FA1C3" />
</svg>