<svg width="24" height="24" viewBox="0 0 24 24" fill="none" xmlns="http://www.w3.org/2000/svg">
<g clip-path="url(#clip0_17_1802)">
<path fill-rule="evenodd" clip-rule="evenodd" d="M16.8245 1.14205C17.1383 -0.29166 19.1798 -0.300585 19.5061 1.13033L19.5215 1.19797C19.532 1.24409 19.5416 1.28669 19.552 1.33109C19.928 2.93239 21.224 4.15594 22.846 4.43817C24.3416 4.69833 24.3416 6.84501 22.846 7.10517C21.2152 7.3889 19.9142 8.62401 19.546 10.2379L19.5061 10.413C19.1798 11.8439 17.1383 11.835 16.8245 10.4013L16.7916 10.251C16.437 8.63121 15.1377 7.38689 13.504 7.10268C12.0114 6.84302 12.0114 4.70031 13.504 4.44065C15.132 4.15742 16.428 2.92077 16.7879 1.30921L16.8121 1.19866L16.8245 1.14205ZM13.1846 8.93889C9.96884 8.37945 9.66459 4.14684 12.272 2.89248C12.0392 2.47255 11.7929 2.05995 11.5335 1.65543C11.3984 1.65058 11.2627 1.64813 11.1264 1.64813C10.9902 1.64813 10.8546 1.65057 10.7196 1.65542C8.79036 4.66323 7.59077 8.11697 7.23331 11.7216H15.0197C14.9687 11.2074 14.9006 10.6962 14.8157 10.189C14.5139 9.53954 13.9098 9.06508 13.1846 8.93889ZM0.0322473 11.7217C0.46944 7.13815 3.68273 3.36439 7.97158 2.10094C6.37664 5.05716 5.38815 8.33244 5.08083 11.7216H0.0474681L0.0322473 11.7217ZM0.0474681 13.8644H5.08076C5.38795 17.2536 6.37632 20.5289 7.97115 23.4852C3.68244 22.2216 0.469322 18.4478 0.0322266 13.8643L0.0474681 13.8644ZM7.23322 13.8644C7.59055 17.4691 8.79002 20.9229 10.7192 23.9307C10.8543 23.9357 10.9901 23.9381 11.1264 23.9381C11.2628 23.9381 11.3987 23.9357 11.5339 23.9307C13.463 20.9229 14.6625 17.4691 15.0198 13.8644H7.23322ZM22.2206 13.8643C21.7835 18.4478 18.5706 22.2214 14.282 23.485C15.8768 20.5287 16.8651 17.2536 17.1722 13.8644H22.2059L22.2206 13.8643Z" fill="#6482AD"/>
</g>
<defs>
<clipPath id="clip0_17_1802">
<rect width="24" height="24" fill="white"/>
</clipPath>
</defs>
</svg>
