<svg width="24"
     height="24"
     viewBox="0 0 24 24"
     fill="none"
     xmlns="http://www.w3.org/2000/svg">
    <path fill-rule="evenodd"
          clip-rule="evenodd"
          d="M16.8246 1.142C17.1385 -0.291713 19.18 -0.300637 19.5062 1.13028L19.5216 1.19792C19.5321 1.24404 19.5417 1.28664 19.5521 1.33104C19.9281 2.93234 21.2241 4.15589 22.8461 4.43811C24.3417 4.69827 24.3417 6.84495 22.8461 7.10511C21.2153 7.38884 19.9144 8.62395 19.5461 10.2379L19.5062 10.4129C19.18 11.8439 17.1385 11.8349 16.8246 10.4012L16.7917 10.251C16.4371 8.63115 15.1378 7.38684 13.5041 7.10263C12.0116 6.84296 12.0115 4.70026 13.5041 4.4406C15.1321 4.15736 16.4281 2.92071 16.788 1.30916L16.8123 1.19861L16.8246 1.142ZM13.1847 8.93883C9.96897 8.37939 9.66471 4.14679 12.2721 2.89243C12.0393 2.4725 11.7931 2.0599 11.5336 1.65538C11.3985 1.65053 11.2628 1.64808 11.1265 1.64808C10.9903 1.64808 10.8547 1.65052 10.7197 1.65537C8.79048 4.66318 7.59089 8.11692 7.23343 11.7215H15.0199C14.9689 11.2073 14.9007 10.6962 14.8158 10.189C14.514 9.53949 13.91 9.06502 13.1847 8.93883ZM0.0323694 11.7216C0.469562 7.1381 3.68285 3.36434 7.9717 2.10089C6.37677 5.05711 5.38827 8.33239 5.08095 11.7215H0.0475902L0.0323694 11.7216ZM0.0475902 13.8644H5.08089C5.38807 17.2535 6.37644 20.5289 7.97127 23.4851C3.68256 22.2215 0.469444 18.4477 0.0323486 13.8643L0.0475902 13.8644ZM7.23334 13.8644C7.59067 17.469 8.79014 20.9228 10.7193 23.9307C10.8544 23.9357 10.9902 23.9381 11.1265 23.9381C11.2629 23.9381 11.3988 23.9357 11.534 23.9307C13.4632 20.9228 14.6626 17.469 15.02 13.8644H7.23334ZM22.2208 13.8643C21.7836 18.4477 18.5707 22.2214 14.2821 23.485C15.8769 20.5287 16.8652 17.2535 17.1724 13.8644H22.206L22.2208 13.8643Z"
          fill="#7FA1C3" />
</svg>