<svg width="32" height="32" viewBox="3 3 32 32" fill="#757575" xmlns="http://www.w3.org/2000/svg">
<path d="M19 18.9999C17.2583 18.9999 15.7674 18.3798 14.5271 17.1395C13.2868 15.8992 12.6667 14.4083 12.6667 12.6666C12.6667 10.9249 13.2868 9.43395 14.5271 8.19367C15.7674 6.95339 17.2583 6.33325 19 6.33325C20.7417 6.33325 22.2326 6.95339 23.4729 8.19367C24.7132 9.43395 25.3333 10.9249 25.3333 12.6666C25.3333 14.4083 24.7132 15.8992 23.4729 17.1395C22.2326 18.3798 20.7417 18.9999 19 18.9999ZM6.33333 31.6666V27.2332C6.33333 26.336 6.56423 25.5114 7.02604 24.7593C7.48785 24.0072 8.10139 23.4333 8.86667 23.0374C10.5028 22.2194 12.1653 21.6058 13.8542 21.1968C15.5431 20.7878 17.2583 20.5833 19 20.5833C20.7417 20.5833 22.4569 20.7878 24.1458 21.1968C25.8347 21.6058 27.4972 22.2194 29.1333 23.0374C29.8986 23.4333 30.5121 24.0072 30.974 24.7593C31.4358 25.5114 31.6667 26.336 31.6667 27.2332V31.6666H6.33333ZM9.5 28.4999H28.5V27.2332C28.5 26.943 28.4274 26.6791 28.2823 26.4416C28.1371 26.2041 27.9458 26.0194 27.7083 25.8874C26.2833 25.1749 24.8451 24.6405 23.3937 24.2843C21.9424 23.928 20.4778 23.7499 19 23.7499C17.5222 23.7499 16.0576 23.928 14.6062 24.2843C13.1549 24.6405 11.7167 25.1749 10.2917 25.8874C10.0542 26.0194 9.86285 26.2041 9.71771 26.4416C9.57257 26.6791 9.5 26.943 9.5 27.2332V28.4999ZM19 15.8333C19.8708 15.8333 20.6163 15.5232 21.2365 14.903C21.8566 14.2829 22.1667 13.5374 22.1667 12.6666C22.1667 11.7958 21.8566 11.0503 21.2365 10.4301C20.6163 9.80999 19.8708 9.49992 19 9.49992C18.1292 9.49992 17.3837 9.80999 16.7635 10.4301C16.1434 11.0503 15.8333 11.7958 15.8333 12.6666C15.8333 13.5374 16.1434 14.2829 16.7635 14.903C17.3837 15.5232 18.1292 15.8333 19 15.8333Z" fill="#79747E"/>
</svg>
