<svg width="17" height="18" viewBox="0 0 17 18" fill="none" xmlns="http://www.w3.org/2000/svg">
<path d="M9.5 5.4375C9.5 4.88522 9.05229 4.4375 8.5 4.4375C7.94772 4.4375 7.5 4.88522 7.5 5.4375L9.5 5.4375ZM7.5 12.5625C7.5 13.1148 7.94772 13.5625 8.5 13.5625C9.05228 13.5625 9.5 13.1148 9.5 12.5625H7.5ZM12.0625 10C12.6148 10 13.0625 9.55228 13.0625 9C13.0625 8.44772 12.6148 8 12.0625 8V10ZM4.9375 8C4.38522 8 3.9375 8.44772 3.9375 9C3.9375 9.55228 4.38522 10 4.9375 10V8ZM14.625 9C14.625 12.3827 11.8827 15.125 8.5 15.125V17.125C12.9873 17.125 16.625 13.4873 16.625 9H14.625ZM8.5 15.125C5.11726 15.125 2.375 12.3827 2.375 9H0.375C0.375 13.4873 4.01269 17.125 8.5 17.125V15.125ZM2.375 9C2.375 5.61726 5.11726 2.875 8.5 2.875V0.875C4.01269 0.875 0.375 4.51269 0.375 9H2.375ZM8.5 2.875C11.8827 2.875 14.625 5.61726 14.625 9H16.625C16.625 4.51269 12.9873 0.875 8.5 0.875V2.875ZM7.5 5.4375L7.5 9L9.5 9L9.5 5.4375L7.5 5.4375ZM7.5 9V12.5625H9.5V9H7.5ZM12.0625 8H8.5V10H12.0625V8ZM8.5 8H4.9375V10H8.5V8Z" fill="#757575"/>
</svg>
