<svg width="24"
     height="24"
     viewBox="0 0 24 24"
     fill="none"
     xmlns="http://www.w3.org/2000/svg">
    <path fill-rule="evenodd"
          clip-rule="evenodd"
          d="M0.857143 4.28571C0.857143 1.91878 2.77593 0 5.14286 0C7.50979 0 9.42857 1.91878 9.42857 4.28571C9.42857 6.65265 7.50979 8.57143 5.14286 8.57143C2.77593 8.57143 0.857143 6.65265 0.857143 4.28571ZM18.8571 0C16.4902 0 14.5714 1.91878 14.5714 4.28571C14.5714 6.65265 16.4902 8.57143 18.8571 8.57143C21.2241 8.57143 23.1429 6.65265 23.1429 4.28571C23.1429 1.91878 21.2241 0 18.8571 0ZM15.6239 12.6131C16.2814 11.3858 17.3105 10.2857 18.8571 10.2857C20.4038 10.2857 21.4329 11.3858 22.0905 12.6131C22.7568 13.857 23.1777 15.4619 23.4509 16.9922C23.7267 18.5367 23.8634 20.0727 23.9316 21.2169C23.9657 21.7905 23.9829 22.2691 23.9914 22.6054C23.9957 22.7736 23.9978 22.9065 23.999 22.9978L23.9998 23.1034L24 23.1317V23.1417C24 23.142 24 23.1429 23.1429 23.1429L24 23.1417C24 23.615 23.6162 24 23.1429 24H14.5714C14.098 24 13.7143 23.6162 13.7143 23.1429H14.5714C13.7143 23.1429 13.7143 23.1432 13.7143 23.1429V23.1394L13.7143 23.1317L13.7144 23.1034L13.7154 22.9978C13.7165 22.9065 13.7186 22.7736 13.7229 22.6054C13.7315 22.2691 13.7486 21.7905 13.7828 21.2169C13.8509 20.0727 13.9875 18.5367 14.2634 16.9922C14.5366 15.4619 14.9575 13.857 15.6239 12.6131ZM0 11.1429C0 10.6695 0.383757 10.2857 0.857143 10.2857H9.42857C9.90195 10.2857 10.2857 10.6695 10.2857 11.1429H9.42857C10.2857 11.1429 10.2857 11.1426 10.2857 11.1429V11.1463L10.2857 11.154L10.2856 11.1822L10.2846 11.2878C10.2835 11.3793 10.2814 11.5121 10.2771 11.6803C10.2685 12.0166 10.2514 12.4952 10.2172 13.0688C10.1491 14.213 10.0125 15.749 9.73665 17.2935C9.46339 18.8239 9.04246 20.4288 8.37609 21.6727C7.71861 22.8999 6.68955 24 5.14286 24C3.59616 24 2.56711 22.8999 1.90963 21.6727C1.24325 20.4288 0.822334 18.8239 0.549062 17.2935C0.273252 15.749 0.136588 14.213 0.0684787 13.0688C0.0343358 12.4952 0.0172281 12.0166 0.00864927 11.6803C0.00435826 11.5121 0.00219639 11.3793 0.00110706 11.2878L0.000144993 11.1822L1.97717e-05 11.154L0 11.1463V11.1429C0 11.1426 0 11.1429 0.857143 11.1429H0Z"
          fill="#6482AD" />
</svg>